<mxfile host="app.diagrams.net" modified="2023-08-21T03:08:41.040Z" agent="Mozilla/5.0 (Macintosh; Intel Mac OS X 10_15_7) AppleWebKit/605.1.15 (KHTML, like Gecko) Version/16.1 Safari/605.1.15" version="21.6.8" etag="2Piv8g2RIRzV9P5IeeyZ" type="github">
  <diagram name="Page-1" id="-wxQ_LQYcz2tef6kx1zq">
    <mxGraphModel>
      <root>
        <mxCell id="0" />
        <mxCell id="1" parent="0" />
      </root>
    </mxGraphModel>
  </diagram>
</mxfile>
